<svg xmlns="http://www.w3.org/2000/svg" fill="none" viewBox="0 0 48 36">
  <path fill="rgb(0,157,220)" d="M17.673 25.535h-.001a7.537 7.537 0 010-15.074h.001V7.196h-.001c-5.966 0-10.803 4.836-10.803 10.801 0 5.966 4.837 10.803 10.803 10.803h.001v-3.265z"/>
  <path fill="rgb(36,56,127)" d="M17.673 31.18h-.001c-7.28 0-13.182-5.903-13.182-13.183S10.392 4.816 17.672 4.816V.5C8.008.5.174 8.333.174 17.997s7.834 17.499 17.498 17.499V31.18z"/>
  <path fill="rgb(0,157,220)" d="M29.922 25.535a7.537 7.537 0 000-15.074V7.196c5.965 0 10.803 4.836 10.803 10.801 0 5.966-4.838 10.803-10.803 10.803v-3.265z"/>
  <path fill="rgb(36,56,127)" d="M29.922 31.18c7.28 0 13.181-5.903 13.181-13.183S37.202 4.816 29.922 4.816V.5c9.664 0 17.497 7.833 17.497 17.497s-7.833 17.499-17.497 17.499V31.18zM28.17 5.303a4.373 4.373 0 11-8.747 0A4.373 4.373 0 0123.8.928a4.371 4.371 0 014.37 4.375z"/>
</svg>